# xmcd
#
# Track frame offsets:
#	150
#	11058
#	31572
#	55590
#	78933
#	104449
#	123340
#	143659
#	164703
#	185329
#	206547
#	218953
#	257579
#
# Disc length: 3608 seconds
#
# Revision: 1
# Processed by: cddbd v1.5.1PL2 Copyright (c) Steve Scherf et al.
# Submitted via: EasyCDDAExtractor 9.0.0.1
#
DISCID=aa0e160d
DTITLE=Ozzy Osbourne - Blizzard Of Ozz FM Concert 1981
DYEAR=1981
DGENRE=Hard Rock
TTITLE0=Intro
TTITLE1=I Don't Know
TTITLE2=Crazy Train
TTITLE3=Believer
TTITLE4=Mr Crowley
TTITLE5=Flying High Again
TTITLE6=Revelation (Mother Earth)
TTITLE7=Steal Away (The Night)
TTITLE8=Drum Solo
TTITLE9=Suicide Solution
TTITLE10=Guitar Solo
TTITLE11=Iron Man - Children Of The Grave
TTITLE12=Paranoid
EXTD=
EXTT0=
EXTT1=
EXTT2=
EXTT3=
EXTT4=
EXTT5=
EXTT6=
EXTT7=
EXTT8=
EXTT9=
EXTT10=
EXTT11=
EXTT12=
PLAYORDER=
